<svg width="20" height="20" viewBox="0 0 20 20" fill="none" xmlns="http://www.w3.org/2000/svg">
<path d="M2.98366 1.6805C2.06166 1.6805 1.48653 2.50668 1.74992 3.28729C2.69433 6.08618 4.4542 10.2967 7.07878 12.9212C9.70331 15.5458 13.9138 17.3057 16.7127 18.2501C17.4933 18.5134 18.3195 17.9384 18.3195 17.0163V14.1743C18.3195 14.0726 18.2644 13.9789 18.1756 13.9296L15.7 12.5532C15.6191 12.5083 15.5213 12.5061 15.4386 12.5475L12.7986 13.8675C12.6335 13.95 12.4458 13.9759 12.2645 13.9412L12.4228 13.1159C12.2645 13.9412 12.2645 13.9412 12.2645 13.9412L12.2621 13.9407L12.259 13.9401L12.2505 13.9384L12.2252 13.9331C12.2046 13.9287 12.1767 13.9226 12.1422 13.9144C12.0731 13.8981 11.9769 13.8737 11.8585 13.8395C11.6219 13.7712 11.294 13.6632 10.9131 13.5008C10.1544 13.1775 9.164 12.6298 8.26707 11.7329C7.37026 10.8361 6.82108 9.84435 6.49627 9.08457C6.33314 8.70299 6.22429 8.37457 6.15539 8.13757C6.12088 8.0189 6.09624 7.92261 6.07972 7.85342C6.07146 7.81881 6.06521 7.79093 6.06077 7.77035L6.05543 7.74503L6.05373 7.7366L6.05311 7.73347L6.05285 7.73217C6.05285 7.73217 6.05264 7.73106 6.87743 7.57063L6.05285 7.73217C6.01747 7.55026 6.043 7.36063 6.12588 7.19487L7.44608 4.55441C7.48739 4.4718 7.48534 4.37402 7.44047 4.29318L6.07012 1.82471C6.02067 1.73566 5.92687 1.6805 5.82521 1.6805H2.98366ZM7.76866 7.66702L7.76907 7.66841C7.82194 7.85026 7.90881 8.11365 8.04148 8.42396C8.30825 9.04797 8.75097 9.84025 9.45534 10.5446M9.45534 10.5446C10.1596 11.2489 10.9501 11.6898 11.5719 11.9548C11.8811 12.0866 12.1435 12.1726 12.3245 12.2249L14.687 11.0445C15.2661 10.7549 15.9507 10.7699 16.5165 11.0844L18.992 12.4607C19.6143 12.8066 20 13.4626 20 14.1743V17.0163C20 18.9889 18.1375 20.5044 16.1755 19.8424C13.3414 18.8861 8.80803 17.0271 5.8905 14.1095C2.97291 11.192 1.11388 6.65859 0.15762 3.82456C-0.504409 1.86248 1.0111 0 2.98366 0H5.82521C6.53748 0 7.19362 0.386329 7.53932 1.00892L8.90975 3.47753C9.22371 4.04311 9.23855 4.72728 8.94915 5.306L7.76866 7.66702" fill="white"/>
</svg>
