<svg width="16" height="19" viewBox="0 0 16 19" fill="none" xmlns="http://www.w3.org/2000/svg">
<path fill-rule="evenodd" clip-rule="evenodd" d="M4 6.75C4 4.67893 5.67893 3 7.75 3C9.82107 3 11.5 4.67893 11.5 6.75C11.5 8.82107 9.82107 10.5 7.75 10.5C5.67893 10.5 4 8.82107 4 6.75ZM7.75 4.5C6.50736 4.5 5.5 5.50736 5.5 6.75C5.5 7.99264 6.50736 9 7.75 9C8.99264 9 10 7.99264 10 6.75C10 5.50736 8.99264 4.5 7.75 4.5Z" fill="#252B42"/>
<path fill-rule="evenodd" clip-rule="evenodd" d="M1.20641 5.87724C1.48017 2.55603 4.25555 0 7.58803 0H7.91198C11.2445 0 14.0198 2.55603 14.2936 5.87724C14.4403 7.65751 13.8904 9.42525 12.7597 10.8081L9.16489 15.2045C8.43361 16.0988 7.06639 16.0988 6.33512 15.2045L2.74032 10.8081C1.60958 9.42525 1.05967 7.65751 1.20641 5.87724ZM7.58803 1.5C5.03621 1.5 2.91097 3.45726 2.70134 6.00046C2.58652 7.39343 3.0168 8.77659 3.90154 9.85861L7.49634 14.255C7.62745 14.4153 7.87256 14.4153 8.00367 14.255L11.5985 9.85861C12.4832 8.77659 12.9135 7.39343 12.7987 6.00046C12.589 3.45726 10.4638 1.5 7.91198 1.5H7.58803Z" fill="#252B42"/>
<path d="M3.42082 14.0854C3.60606 13.7149 3.45589 13.2644 3.08541 13.0792C2.71493 12.8939 2.26442 13.0441 2.07918 13.4146L0.0791804 17.4146C-0.0370653 17.6471 -0.0246423 17.9232 0.112013 18.1443C0.248668 18.3654 0.490068 18.5 0.750001 18.5H14.75C15.0099 18.5 15.2513 18.3654 15.388 18.1443C15.5246 17.9232 15.5371 17.6471 15.4208 17.4146L13.4208 13.4146C13.2356 13.0441 12.7851 12.8939 12.4146 13.0792C12.0441 13.2644 11.8939 13.7149 12.0792 14.0854L13.5365 17H1.96353L3.42082 14.0854Z" fill="#252B42"/>
</svg>
