<svg width="25" height="25" viewBox="0 0 25 25" fill="none" xmlns="http://www.w3.org/2000/svg">
<path d="M17.8543 22.1355H7.14598C4.7814 22.1355 2.86475 20.2188 2.86475 17.8542V7.14587C2.86475 4.78129 4.7814 2.86462 7.14598 2.86462H17.8543C20.2189 2.86462 22.1356 4.78129 22.1356 7.14587V17.8542C22.1356 20.2188 20.2189 22.1355 17.8543 22.1355Z" stroke="white" stroke-width="1.5" stroke-linecap="round" stroke-linejoin="round"/>
<path d="M12.5 16.2189C14.5538 16.2189 16.2188 14.5539 16.2188 12.5001C16.2188 10.4463 14.5538 8.78137 12.5 8.78137C10.4462 8.78137 8.78125 10.4463 8.78125 12.5001C8.78125 14.5539 10.4462 16.2189 12.5 16.2189Z" stroke="white" stroke-width="1.5" stroke-linecap="round" stroke-linejoin="round"/>
<path d="M17.8649 8.25008C18.4575 8.25008 18.9378 7.76972 18.9378 7.17716C18.9378 6.58461 18.4575 6.10425 17.8649 6.10425C17.2724 6.10425 16.792 6.58461 16.792 7.17716C16.792 7.76972 17.2724 8.25008 17.8649 8.25008Z" fill="white"/>
</svg>
