<svg width="25" height="25" viewBox="0 0 25 25" fill="none" xmlns="http://www.w3.org/2000/svg">
<path d="M12.4373 22.0104C10.8748 22.0104 9.30192 21.5937 7.9165 20.802L2.854 22.125L4.17691 17.1875C3.33316 15.7395 2.9165 14.1145 2.9165 12.427C2.9165 7.18745 7.18732 2.85413 12.4269 2.85413C15.0207 2.85413 17.4269 3.87496 19.229 5.68746C21.0311 7.48954 22.1144 9.90621 22.1144 12.4375C22.1352 17.7395 17.7394 22.0104 12.4373 22.0104Z" stroke="white" stroke-width="1.5" stroke-linecap="round" stroke-linejoin="round"/>
<path d="M16.5519 14.5104C16.0311 13.7812 15.7707 13.4062 15.354 13.3125C14.8644 13.2083 14.4269 13.4583 14.2394 13.5833C13.9478 13.5312 13.1665 13.3333 12.479 12.6562C11.7915 11.9792 11.5936 11.2083 11.5311 10.9167C11.6249 10.7187 11.854 10.2083 11.6769 9.64583C11.5415 9.17708 11.1769 8.9375 10.479 8.44792C10.3123 8.33333 10.1249 8.21875 9.88527 8.21875C9.61444 8.21875 9.41651 8.36458 9.32276 8.44792L8.51026 9.26042C7.69776 10.1146 8.59359 12.375 10.604 14.3854C12.6144 16.3958 14.8749 17.3333 15.729 16.4792L16.5415 15.6667C16.6249 15.5729 16.7707 15.3542 16.7707 15.0729C16.7707 14.8333 16.6665 14.6562 16.5519 14.5104Z" stroke="white" stroke-width="1.5" stroke-linecap="round" stroke-linejoin="round"/>
</svg>
